<?xml version="1.0" encoding="UTF-8" standalone="no"?>
<svg
   xmlns:dc="http://purl.org/dc/elements/1.1/"
   xmlns:cc="http://creativecommons.org/ns#"
   xmlns:rdf="http://www.w3.org/1999/02/22-rdf-syntax-ns#"
   xmlns:svg="http://www.w3.org/2000/svg"
   xmlns="http://www.w3.org/2000/svg"
   xmlns:xlink="http://www.w3.org/1999/xlink"
   style="enable-background:new"
   id="svg5088"
   version="1.1"
   viewBox="0 0 8.4666665 8.4666669"
   height="32"
   width="32">
  <defs
     id="defs5082">
    <linearGradient
       id="linearGradient936">
      <stop
         style="stop-color:#f1f1f1;stop-opacity:1"
         offset="0"
         id="stop932" />
      <stop
         style="stop-color:#c5c5c5;stop-opacity:1"
         offset="1"
         id="stop934" />
    </linearGradient>
    <linearGradient
       id="82-2">
      <stop
         id="stop888"
         offset="0"
         style="stop-color:#000000;stop-opacity:1;" />
      <stop
         id="stop890"
         offset="1"
         style="stop-color:#000000;stop-opacity:0;" />
    </linearGradient>
    <radialGradient
       gradientUnits="userSpaceOnUse"
       gradientTransform="matrix(1,0,0,1.3938493,0,-22.543968)"
       r="18.621103"
       fy="57.240086"
       fx="28.681189"
       cy="57.240086"
       cx="28.681189"
       id="radialGradient894"
       xlink:href="#82-2" />
    <radialGradient
       gradientUnits="userSpaceOnUse"
       gradientTransform="matrix(0.01480211,-0.08634564,0.01038049,0.00177952,0.1162891,304.04462)"
       r="70.395576"
       fy="118.17999"
       fx="135.82303"
       cy="118.17999"
       cx="135.82303"
       id="radialGradient930"
       xlink:href="#linearGradient936" />
  </defs>
  <metadata
     id="metadata5085">
    <rdf:RDF>
      <cc:Work
         rdf:about="">
        <dc:format>image/svg+xml</dc:format>
        <dc:type
           rdf:resource="http://purl.org/dc/dcmitype/StillImage" />
        <dc:title></dc:title>
      </cc:Work>
    </rdf:RDF>
  </metadata>
  <g
     transform="translate(0,-288.53331)"
     style="display:inline"
     id="layer2">
    <path
       id="path877"
       d="m 4.2582881,289.34344 c -0.4999635,0.001 -1.0044493,0.0501 -1.4815983,0.20657 -0.3080855,0.10357 -0.6227261,0.24082 -0.8413363,0.49014 -0.052074,0.0665 -0.1040675,0.1386 -0.1257046,0.22101 -0.026499,0.24962 -0.014467,0.50169 -0.01954,0.75234 -0.00152,1.38519 -6.692e-4,2.77045 -4.068e-4,4.1556 0.033199,0.14596 0.1169811,0.27521 0.2278702,0.3744 0.2701863,0.24368 0.6213624,0.37235 0.9671095,0.467 0.4424734,0.11562 0.9020943,0.15622 1.3585386,0.14409 0.4513828,-0.002 0.9042424,-0.0663 1.3355416,-0.2008 0.3008461,-0.10046 0.606818,-0.23164 0.8283106,-0.4662 0.086075,-0.0949 0.1551539,-0.21297 0.1719715,-0.34041 -0.00179,-1.54721 0.00418,-3.09448 -0.00441,-4.64166 -0.00262,-0.10774 0.00859,-0.22199 -0.048442,-0.31904 -0.1285262,-0.24931 -0.3808023,-0.40279 -0.6271698,-0.51775 -0.4818427,-0.2138 -1.0113821,-0.30002 -1.5351234,-0.32284 -0.068499,-0.002 -0.1370891,-0.002 -0.2056191,-0.002 z m -2.4373102,1.24485 c 0.00187,7.2e-4 0.00636,0.008 0.013434,0.0248 -0.012313,-0.0119 -0.016556,-0.0265 -0.013434,-0.0248 z m 0.00144,3.1216 c 6.562e-4,3.9e-4 0.0013,0.002 0.00166,0.006 -0.00556,0.005 -0.00361,-0.008 -0.00166,-0.006 z"
       style="opacity:1;fill:url(#radialGradient930);fill-opacity:1;stroke:none;stroke-width:0.00630124;stroke-miterlimit:4;stroke-dasharray:none;stroke-opacity:1" />
  </g>
  <g
     transform="translate(0,-288.53331)"
     style="display:inline"
     id="layer1">
    <path
       d=""
       cx="30.429947"
       cy="33.57394"
       rx="18.093916"
       ry="8.4193401"
       id="path5695"
       style="opacity:1;fill:none;fill-opacity:1;stroke:#000000;stroke-width:1.04233539;stroke-miterlimit:4;stroke-dasharray:none;stroke-opacity:1" />
    <g
       style="fill:#000000;fill-opacity:1;stroke:#000000;stroke-opacity:1;stroke-width:0.76175404;stroke-miterlimit:4;stroke-dasharray:none"
       transform="matrix(0.13127597,0,0,0.13127597,0.46776737,285.23572)"
       id="g1392">
      <path
         d="m 28.681171,31.285073 c -5.126815,0 -9.767932,0.896815 -13.136665,2.353344 -1.684367,0.728265 -3.05062,1.597556 -4.000273,2.568321 -0.949653,0.970764 -1.484147,2.047875 -1.484147,3.183784 0,0.09309 0.0089,0.185203 0.01602,0.277503 h -0.0062 v 35.454682 h 0.04754 l -0.04754,5.16e-4 c 0.0098,1.134152 0.550352,2.20962 1.505851,3.177585 0.955499,0.967965 2.324907,1.833295 4.011642,2.558499 3.373469,1.450414 8.013638,2.339917 13.132533,2.335776 5.118891,-0.0041 9.752393,-0.901565 13.113411,-2.357479 1.680509,-0.727959 3.043211,-1.594549 3.990454,-2.564186 0.938554,-0.960742 1.466747,-2.027981 1.476396,-3.150711 h 0.0021 v -35.732185 -0.07235 h -0.0041 C 47.275894,38.209025 46.749024,37.156761 45.819659,36.206738 44.870006,35.235973 43.50427,34.366682 41.819903,33.638417 38.45117,32.181888 33.807989,31.285073 28.681171,31.285073 Z m 0,0.191203 c 5.104384,0 9.726171,0.895432 13.062251,2.337842 1.668042,0.721207 3.01461,1.579658 3.939813,2.525427 0.9252,0.945769 1.427303,1.975067 1.427303,3.050977 0,1.075909 -0.502103,2.105207 -1.427303,3.050976 -0.925203,0.945769 -2.271771,1.80422 -3.939813,2.525427 -3.33608,1.44241 -7.957867,2.337842 -13.062251,2.337842 -5.104384,-2e-6 -9.72462,-0.895432 -13.060701,-2.337842 -1.66804,-0.721207 -3.014092,-1.579658 -3.939294,-2.525427 -0.925202,-0.945769 -1.42782,-1.975067 -1.42782,-3.050976 0,-1.07591 0.502618,-2.105208 1.42782,-3.050977 0.925202,-0.945769 2.271254,-1.80422 3.939294,-2.525427 3.336081,-1.44241 7.956317,-2.337841 13.060701,-2.337842 z m 18.429367,9.073864 v 10.729061 c 0,1.07424 -0.50087,2.102212 -1.423686,3.046843 -0.922817,0.944632 -2.265291,1.802474 -3.929475,2.523361 -3.328371,1.44177 -7.940958,2.337853 -13.037447,2.341975 -5.096489,0.0041 -9.715619,-0.88591 -13.056568,-2.322338 -1.670475,-0.718217 -3.020066,-1.572347 -3.951181,-2.515611 -0.931114,-0.94326 -1.441776,-1.970542 -1.451074,-3.044774 V 40.580112 c 0.235486,0.70086 0.671825,1.370854 1.283126,1.995744 0.949653,0.970764 2.315906,1.838505 4.000273,2.566768 3.368733,1.456531 8.00985,2.353347 13.136665,2.353345 5.126818,0 9.769999,-0.896814 13.138732,-2.353345 1.684367,-0.728263 3.050103,-1.596004 3.999756,-2.566768 0.619969,-0.633748 1.0585,-1.314026 1.290879,-2.025716 z M 10.261107,52.434686 c 0.234956,0.722077 0.681161,1.41187 1.314649,2.053622 0.955498,0.967965 2.324906,1.833295 4.011641,2.5585 3.373469,1.450414 8.013639,2.339916 13.132533,2.335776 5.118891,-0.0041 9.752393,-0.901565 13.113411,-2.35748 1.680509,-0.727959 3.043211,-1.594549 3.990454,-2.564186 0.617971,-0.632579 1.05487,-1.311814 1.286743,-2.022096 V 63.18545 c 0,1.074241 -0.50087,2.102213 -1.423686,3.046844 -0.922817,0.944631 -2.265291,1.802474 -3.929475,2.52336 -3.328371,1.441771 -7.940958,2.337854 -13.037447,2.341976 -5.096489,0.0041 -9.715619,-0.88591 -13.056568,-2.322338 -1.670475,-0.718217 -3.020066,-1.572347 -3.951181,-2.515611 -0.931114,-0.943261 -1.441776,-1.970542 -1.451074,-3.044774 z m 0,11.90625 c 0.234956,0.722077 0.681161,1.41187 1.314649,2.053622 0.955498,0.967965 2.324906,1.833295 4.011641,2.558499 3.373469,1.450415 8.013639,2.339917 13.132533,2.335777 5.118891,-0.0041 9.752393,-0.901566 13.113411,-2.35748 1.680509,-0.727959 3.043211,-1.594549 3.990454,-2.564186 0.617971,-0.632579 1.05487,-1.311815 1.286743,-2.022096 V 75.0917 c 0,1.07424 -0.50087,2.102213 -1.423686,3.046844 -0.922817,0.944631 -2.265291,1.802474 -3.929475,2.52336 -3.328371,1.44177 -7.940958,2.337853 -13.037447,2.341976 -5.096489,0.0041 -9.715619,-0.88591 -13.056568,-2.322338 -1.670475,-0.718217 -3.020066,-1.572348 -3.951181,-2.515611 -0.931114,-0.943261 -1.441776,-1.970543 -1.451074,-3.044775 z"
         style="color:#000000;font-style:normal;font-variant:normal;font-weight:normal;font-stretch:normal;font-size:medium;line-height:normal;font-family:sans-serif;font-variant-ligatures:normal;font-variant-position:normal;font-variant-caps:normal;font-variant-numeric:normal;font-variant-alternates:normal;font-feature-settings:normal;text-indent:0;text-align:start;text-decoration:none;text-decoration-line:none;text-decoration-style:solid;text-decoration-color:#000000;letter-spacing:normal;word-spacing:normal;text-transform:none;writing-mode:lr-tb;direction:ltr;text-orientation:mixed;dominant-baseline:auto;baseline-shift:baseline;text-anchor:start;white-space:normal;shape-padding:0;clip-rule:nonzero;display:inline;overflow:visible;visibility:visible;opacity:1;isolation:auto;mix-blend-mode:normal;color-interpolation:sRGB;color-interpolation-filters:linearRGB;solid-color:#000000;solid-opacity:1;vector-effect:none;fill:#000000;fill-opacity:1;fill-rule:nonzero;stroke:#000000;stroke-width:0.76175404;stroke-linecap:butt;stroke-linejoin:miter;stroke-miterlimit:4;stroke-dasharray:none;stroke-dashoffset:0;stroke-opacity:1;color-rendering:auto;image-rendering:auto;shape-rendering:auto;text-rendering:auto;enable-background:accumulate"
         id="path2835" />
    </g>
    <path
       id="rect884"
       d="m 5.1130198,294.46557 0.9723969,0.94691 -0.9469042,0.9724 0.3241268,0.31563 0.9469042,-0.9724 0.9723992,0.94691 0.3156337,-0.32414 -0.9723971,-0.94691 0.9469055,-0.97239 -0.3241267,-0.31564 -0.9469059,0.9724 -0.9723975,-0.9469 z"
       style="opacity:1;fill:#d23814;fill-opacity:1;stroke:#ffffff;stroke-width:0.0396875;stroke-miterlimit:4;stroke-dasharray:none;stroke-opacity:1" />
  </g>
</svg>
