<?xml version="1.0" encoding="UTF-8" standalone="no"?>
<svg
        xmlns:dc="http://purl.org/dc/elements/1.1/"
        xmlns:cc="http://creativecommons.org/ns#"
        xmlns:rdf="http://www.w3.org/1999/02/22-rdf-syntax-ns#"
        xmlns="http://www.w3.org/2000/svg"
        xmlns:xlink="http://www.w3.org/1999/xlink"
        id="svg8"
        version="1.1"
        viewBox="0 0 8.7312489 8.7312495"
        height="33"
        width="33">
    <defs
            id="defs2">
        <linearGradient
                id="linearGradient976">
            <stop
                    id="stop972"
                    offset="0"
                    style="stop-color:#81c9e7;stop-opacity:1"/>
            <stop
                    id="stop974"
         offset="1"
         style="stop-color:#447f9d;stop-opacity:1" />
    </linearGradient>
    <linearGradient
       gradientUnits="userSpaceOnUse"
       y2="5.9796771"
       x2="29.742471"
       y1="5.9796771"
       x1="3.2245832"
       id="linearGradient978"
       xlink:href="#linearGradient976" />
  </defs>
  <metadata
     id="metadata5">
    <rdf:RDF>
      <cc:Work
         rdf:about="">
        <dc:format>image/svg+xml</dc:format>
        <dc:type
           rdf:resource="http://purl.org/dc/dcmitype/StillImage" />
        <dc:title></dc:title>
      </cc:Work>
    </rdf:RDF>
  </metadata>
  <g
     style="display:inline"
     transform="translate(0,-288.26873)"
     id="layer1">
    <g
       id="g966">
      <g
         id="g912">
        <path
           id="path852"
           d="m 0.79375,289.4827 v 6.72353 H 7.9375 v -7.14375 H 0.79375 Z"
           style="fill:none;stroke:#000000;stroke-width:0.15000001;stroke-linecap:butt;stroke-linejoin:miter;stroke-miterlimit:4;stroke-dasharray:none;stroke-opacity:1" />
        <path
           id="path858"
           d="M 0.79375,290.64998 H 7.9374999"
           style="fill:none;stroke:#000000;stroke-width:0.14729708;stroke-linecap:butt;stroke-linejoin:miter;stroke-miterlimit:4;stroke-dasharray:none;stroke-opacity:1" />
        <path
           id="path867"
           d="M 7.9375,294.35415 H 3.6002232 0.79375"
           style="fill:none;stroke:#000000;stroke-width:0.14729708;stroke-linecap:butt;stroke-linejoin:miter;stroke-miterlimit:4;stroke-dasharray:none;stroke-opacity:1" />
        <path
           id="path869"
           d="M 7.9375,292.50206 H 0.7937501"
           style="fill:none;stroke:#000000;stroke-width:0.14729708;stroke-linecap:butt;stroke-linejoin:miter;stroke-miterlimit:4;stroke-dasharray:none;stroke-opacity:1" />
        <path
           id="path871"
           d="m 3.175,296.20623 v -5.55625"
           style="fill:none;stroke:#000000;stroke-width:0.15000001;stroke-linecap:butt;stroke-linejoin:miter;stroke-miterlimit:4;stroke-dasharray:none;stroke-opacity:1" />
        <path
           id="path873"
           d="m 5.55625,296.20623 v -5.55625"
           style="fill:none;stroke:#000000;stroke-width:0.15000001;stroke-linecap:butt;stroke-linejoin:miter;stroke-miterlimit:4;stroke-dasharray:none;stroke-opacity:1" />
      </g>
      <path
         style="opacity:1;fill:#ffffff;fill-opacity:1;stroke:#000000;stroke-width:0.01771653;stroke-miterlimit:4;stroke-dasharray:none;stroke-opacity:1"
         d="m 3.2672272,23.263417 c 0,2.156332 0,4.312663 0,6.468995 0.3651654,0.04606 0.7661278,0.0053 1.1450786,0.0179 2.4322922,-0.0046 4.8645847,-0.0092 7.2968772,-0.01375 0.0473,-0.365138 0.0086,-0.766044 0.02273,-1.144955 0.0044,-1.776043 0.0088,-3.552086 0.01316,-5.328128 -0.354608,-0.0468 -0.745274,-0.0067 -1.113769,-0.02008 -2.4480183,0 -4.8960368,0 -7.3440552,0 z"
         id="path930"
         transform="matrix(0.26458333,0,0,0.26458333,0,288.26873)" />
      <path
         style="opacity:1;fill:#ffffff;fill-opacity:1;stroke:#000000;stroke-width:0.01771653;stroke-miterlimit:4;stroke-dasharray:none;stroke-opacity:1"
         d="m 3.2672272,16.263417 c 0,2.15625 0,4.3125 0,6.46875 0.3651097,0.04666 0.7660946,0.0067 1.1450196,0.02002 2.4375,0 4.875,0 7.3125002,0 0.04666,-0.36511 0.0067,-0.766095 0.02002,-1.14502 0,-1.78125 0,-3.5625 0,-5.34375 -0.365109,-0.04666 -0.766094,-0.0067 -1.145019,-0.02002 -2.4375002,0 -4.8750002,0 -7.3125002,0 z"
         id="path932"
         transform="matrix(0.26458333,0,0,0.26458333,0,288.26873)" />
      <path
         style="opacity:1;fill:#ffffff;fill-opacity:1;stroke:#000000;stroke-width:0.01771653;stroke-miterlimit:4;stroke-dasharray:none;stroke-opacity:1"
         d="m 12.267227,16.263417 c 0,2.15625 0,4.3125 0,6.46875 0.36511,0.04666 0.766095,0.0067 1.14502,0.02002 2.4375,0 4.875,0 7.3125,0 0.04666,-0.36511 0.0067,-0.766095 0.02002,-1.14502 0,-1.78125 1e-6,-3.5625 0,-5.34375 -0.365109,-0.04666 -0.766094,-0.0067 -1.145019,-0.02002 -2.4375,0 -4.875,0 -7.3125,0 z"
         id="path934"
         transform="matrix(0.26458333,0,0,0.26458333,0,288.26873)" />
      <path
         style="opacity:1;fill:#ffffff;fill-opacity:1;stroke:#000000;stroke-width:0.01771653;stroke-miterlimit:4;stroke-dasharray:none;stroke-opacity:1"
         d="m 12.267227,23.263417 c 0,2.156332 0,4.312663 0,6.468995 0.365166,0.04606 0.766128,0.0053 1.145079,0.0179 2.432292,-0.0046 4.864585,-0.0092 7.296877,-0.01375 0.0473,-0.365138 0.0086,-0.766044 0.02273,-1.144955 0.0044,-1.776043 0.0088,-3.552086 0.01316,-5.328128 -0.354609,-0.0468 -0.745275,-0.0067 -1.11377,-0.02008 -2.448018,0 -4.896037,0 -7.344055,0 z"
         id="path936"
         transform="matrix(0.26458333,0,0,0.26458333,0,288.26873)" />
      <path
         style="opacity:1;fill:#ffffff;fill-opacity:1;stroke:#000000;stroke-width:0.01771653;stroke-miterlimit:4;stroke-dasharray:none;stroke-opacity:1"
         d="m 21.267227,23.263417 c 0,2.156332 0,4.312663 0,6.468995 0.365166,0.04606 0.766128,0.0053 1.145079,0.0179 2.432292,-0.0046 4.864585,-0.0092 7.296877,-0.01375 0.0473,-0.365138 0.0086,-0.766044 0.02273,-1.144955 0.0044,-1.776043 0.0088,-3.552086 0.01316,-5.328128 -0.354609,-0.0468 -0.745275,-0.0067 -1.11377,-0.02008 -2.448018,0 -4.896037,0 -7.344055,0 z"
         id="path938"
         transform="matrix(0.26458333,0,0,0.26458333,0,288.26873)" />
      <path
         style="opacity:1;fill:#ffffff;fill-opacity:1;stroke:#000000;stroke-width:0.01771653;stroke-miterlimit:4;stroke-dasharray:none;stroke-opacity:1"
         d="m 21.267227,16.263417 c 0,2.15625 0,4.3125 0,6.46875 0.36511,0.04666 0.766095,0.0067 1.14502,0.02002 2.4375,0 4.875,0 7.3125,0 0.04666,-0.36511 0.0067,-0.766095 0.02002,-1.14502 0,-1.78125 1e-6,-3.5625 0,-5.34375 -0.365109,-0.04666 -0.766094,-0.0067 -1.145019,-0.02002 -2.4375,0 -4.875,0 -7.3125,0 z"
         id="path940"
         transform="matrix(0.26458333,0,0,0.26458333,0,288.26873)" />
      <path
         style="opacity:1;fill:#ffffff;fill-opacity:1;stroke:#000000;stroke-width:0.01771653;stroke-miterlimit:4;stroke-dasharray:none;stroke-opacity:1"
         d="m 21.267227,9.2634174 c 0,2.1562496 0,4.3124996 0,6.4687496 0.36511,0.04666 0.766095,0.0067 1.14502,0.02002 2.4375,0 4.875,0 7.3125,0 0.04666,-0.36511 0.0067,-0.766095 0.02002,-1.14502 0,-1.78125 1e-6,-3.5625 0,-5.3437496 -0.365109,-0.046661 -0.766094,-0.00671 -1.145019,-0.02002 -2.4375,0 -4.875,0 -7.3125,0 z"
         id="path942"
         transform="matrix(0.26458333,0,0,0.26458333,0,288.26873)" />
      <path
         style="opacity:1;fill:#ffffff;fill-opacity:1;stroke:#000000;stroke-width:0.01771653;stroke-miterlimit:4;stroke-dasharray:none;stroke-opacity:1"
         d="m 12.267227,9.2634174 c 0,2.1562496 0,4.3124996 0,6.4687496 0.36511,0.04666 0.766095,0.0067 1.14502,0.02002 2.4375,0 4.875,0 7.3125,0 0.04666,-0.36511 0.0067,-0.766095 0.02002,-1.14502 0,-1.78125 1e-6,-3.5625 0,-5.3437496 -0.365109,-0.046661 -0.766094,-0.00671 -1.145019,-0.02002 -2.4375,0 -4.875,0 -7.3125,0 z"
         id="path944"
         transform="matrix(0.26458333,0,0,0.26458333,0,288.26873)" />
      <path
         style="opacity:1;fill:#ffffff;fill-opacity:1;stroke:#000000;stroke-width:0.01771653;stroke-miterlimit:4;stroke-dasharray:none;stroke-opacity:1"
         d="m 3.2672272,9.2634174 c 0,2.1562496 0,4.3124996 0,6.4687496 0.3651097,0.04666 0.7660946,0.0067 1.1450196,0.02002 2.4375,0 4.875,0 7.3125002,0 0.04666,-0.36511 0.0067,-0.766095 0.02002,-1.14502 0,-1.78125 0,-3.5625 0,-5.3437496 -0.365109,-0.046661 -0.766094,-0.00671 -1.145019,-0.02002 -2.4375002,0 -4.8750002,0 -7.3125002,0 z"
         id="path946"
         transform="matrix(0.26458333,0,0,0.26458333,0,288.26873)" />
    </g>
    <path
       transform="matrix(0.26458333,0,0,0.26458333,0,288.26873)"
       id="path970"
       d="m 16.498272,3.2547614 c -4.401042,0.00525 -8.802083,0.010498 -13.2031247,0.015747 -0.057131,1.7920787 -0.028334,3.620233 -0.052612,5.4261475 2.6565805,0.047001 5.3494738,0.00671 8.0200197,0.020142 6.14628,0 12.292562,0 18.438842,0 0.04669,-1.802681 0.0066,-3.6412905 0.02002,-5.4577637 -2.656752,-0.043603 -5.349442,-2.98e-4 -8.020014,-0.010478 -1.734377,0.00207 -3.468754,0.00414 -5.203131,0.00621 z"
       style="opacity:1;fill:url(#linearGradient978);fill-opacity:1;stroke:#000000;stroke-width:0.03543307;stroke-miterlimit:4;stroke-dasharray:none;stroke-opacity:1" />
  </g>
  <g
     style="display:inline"
     id="layer2">
    <g
       transform="matrix(1.0402174,0,0,1.0402174,-4.2477375,-301.98695)"
       id="g882">
      <path
         style="opacity:1;fill:#000000;fill-opacity:1;stroke:#000000;stroke-width:0.00398587;stroke-miterlimit:4;stroke-dasharray:none;stroke-opacity:1"
         d="m 10.588032,295.11684 c -0.201184,-1.1e-4 -0.308268,0.19308 -0.355308,0.36263 -0.02789,0.13583 -0.166557,0.22467 -0.2990754,0.17335 -0.16997,-0.0521 -0.3697329,-0.19135 -0.5372249,-0.0528 -0.1877796,0.12969 -0.1161303,0.38614 -0.028879,0.55423 0.075157,0.13493 -5.727e-4,0.31729 -0.1559635,0.34703 -0.1668692,0.048 -0.374937,0.15423 -0.3602097,0.35869 -0.002,0.22812 0.2433215,0.31821 0.4197438,0.38588 0.1653577,0.063 0.1394804,0.27128 0.063351,0.39588 -0.084373,0.16307 -0.09267,0.4139 0.1022464,0.50065 0.2285004,0.14701 0.4424884,-0.15892 0.6702843,-0.075 0.176344,0.13204 0.146212,0.44777 0.389087,0.51316 0.165134,0.0597 0.345551,-0.0451 0.395514,-0.20976 0.05877,-0.12681 0.112503,-0.35508 0.297141,-0.31592 0.20189,0.0447 0.448718,0.23749 0.625959,0.0317 0.123849,-0.10913 0.108823,-0.28464 0.03828,-0.41782 -0.0605,-0.12482 -0.131839,-0.3484 0.04289,-0.41664 0.175257,-0.0785 0.439973,-0.15891 0.436625,-0.39533 0.0029,-0.23053 -0.257048,-0.30724 -0.426244,-0.38596 -0.182795,-0.068 -0.12145,-0.29575 -0.0498,-0.42449 0.05327,-0.0869 0.04275,-0.18833 0.01173,-0.27649 -0.02015,-0.1853 -0.248825,-0.29162 -0.409025,-0.19906 -0.138352,0.0527 -0.336518,0.16883 -0.457142,0.0227 -0.101662,-0.18187 -0.1528,-0.4727 -0.414011,-0.4767 z m 0.0044,0.93734 c 0.437235,-0.0444 0.818754,0.3727 0.817928,0.79647 0.02197,0.49122 -0.473343,0.91881 -0.956508,0.82283 -0.4706975,-0.0713 -0.8115523,-0.59839 -0.6517831,-1.05466 0.099286,-0.32908 0.4368341,-0.60458 0.7903631,-0.56464 z"
         id="path854" />
      <path
         style="opacity:1;fill:#ffffff;fill-opacity:1;stroke:#000000;stroke-width:0.03543307;stroke-miterlimit:4;stroke-dasharray:none;stroke-opacity:1"
         d="m 40.190429,29.272904 c -0.647566,-0.01469 -1.327837,0.02695 -1.870606,0.422729 -1.365747,0.80644 -1.977186,2.677238 -1.266723,4.112549 0.55916,1.227031 1.914695,2.084307 3.276001,1.900757 1.102819,-0.06038 2.081124,-0.847399 2.598877,-1.79126 0.746974,-1.306692 0.277196,-3.041879 -0.863282,-3.962402 -0.519939,-0.434074 -1.188365,-0.719262 -1.874267,-0.682373 z"
         id="path877"
         transform="matrix(0.26458333,0,0,0.26458333,0,288.26873)" />
    </g>
  </g>
</svg>
