<?xml version="1.0"?>
<svg xmlns="http://www.w3.org/2000/svg" viewBox="0 0 80 80">
    <path d="M 13 10 C 11.35503 10 10 11.35503 10 13 L 10 25 C 10 26.64497 11.35503 28 13 28 L 22 28 L 31 28 C 32.64497 28 34 26.64497 34 25 L 34 13 C 34 11.35503 32.64497 10 31 10 L 13 10 z M 22 28 A 1 1 0 0 0 21 29 A 1 1 0 0 0 22 30 A 1 1 0 0 0 23 29 A 1 1 0 0 0 22 28 z M 13 12 L 31 12 C 31.56503 12 32 12.43497 32 13 L 32 25 C 32 25.56503 31.56503 26 31 26 L 13 26 C 12.43497 26 12 25.56503 12 25 L 12 13 C 12 12.43497 12.43497 12 13 12 z M 16 14 A 1 1 0 0 0 15 15 A 1 1 0 0 0 16 16 A 1 1 0 0 0 17 15 A 1 1 0 0 0 16 14 z M 16 18 A 1 1 0 0 0 15 19 A 1 1 0 0 0 16 20 A 1 1 0 0 0 17 19 A 1 1 0 0 0 16 18 z M 16 22 A 1 1 0 0 0 15 23 A 1 1 0 0 0 16 24 A 1 1 0 0 0 17 23 A 1 1 0 0 0 16 22 z M 49 28 C 47.35503 28 46 29.35503 46 31 L 46 36 A 1 1 0 0 0 45 37 A 1 1 0 0 0 46 38 L 46 43 C 46 44.64497 47.35503 46 49 46 L 67 46 C 68.64497 46 70 44.64497 70 43 L 70 31 C 70 29.35503 68.64497 28 67 28 L 49 28 z M 49 30 L 67 30 C 67.56503 30 68 30.43497 68 31 L 68 43 C 68 43.56503 67.56503 44 67 44 L 49 44 C 48.43497 44 48 43.56503 48 43 L 48 31 C 48 30.43497 48.43497 30 49 30 z M 22 32 A 1 1 0 0 0 21 33 A 1 1 0 0 0 22 34 A 1 1 0 0 0 23 33 A 1 1 0 0 0 22 32 z M 52 32 A 1 1 0 0 0 51 33 A 1 1 0 0 0 52 34 A 1 1 0 0 0 53 33 A 1 1 0 0 0 52 32 z M 22 36 A 1 1 0 0 0 21 37 A 1 1 0 0 0 22 38 A 1 1 0 0 0 23 37 A 1 1 0 0 0 22 36 z M 26 36 A 1 1 0 0 0 25 37 A 1 1 0 0 0 26 38 A 1 1 0 0 0 27 37 A 1 1 0 0 0 26 36 z M 30 36 A 1 1 0 0 0 29 37 A 1 1 0 0 0 30 38 A 1 1 0 0 0 31 37 A 1 1 0 0 0 30 36 z M 34 36 A 1 1 0 0 0 33 37 A 1 1 0 0 0 34 38 A 1 1 0 0 0 35 37 A 1 1 0 0 0 34 36 z M 38 36 A 1 1 0 0 0 37 37 A 1 1 0 0 0 38 38 A 1 1 0 0 0 39 37 A 1 1 0 0 0 38 36 z M 42 36 A 1 1 0 0 0 41 37 A 1 1 0 0 0 42 38 A 1 1 0 0 0 43 37 A 1 1 0 0 0 42 36 z M 52 36 A 1 1 0 0 0 51 37 A 1 1 0 0 0 52 38 A 1 1 0 0 0 53 37 A 1 1 0 0 0 52 36 z M 22 40 A 1 1 0 0 0 21 41 A 1 1 0 0 0 22 42 A 1 1 0 0 0 23 41 A 1 1 0 0 0 22 40 z M 52 40 A 1 1 0 0 0 51 41 A 1 1 0 0 0 52 42 A 1 1 0 0 0 53 41 A 1 1 0 0 0 52 40 z M 22 44 A 1 1 0 0 0 21 45 A 1 1 0 0 0 22 46 A 1 1 0 0 0 23 45 A 1 1 0 0 0 22 44 z M 22 48 A 1 1 0 0 0 21 49 A 1 1 0 0 0 22 50 A 1 1 0 0 0 23 49 A 1 1 0 0 0 22 48 z M 22 52 A 1 1 0 0 0 21 53 A 1 1 0 0 0 22 54 A 1 1 0 0 0 23 53 A 1 1 0 0 0 22 52 z M 49 52 C 47.35503 52 46 53.35503 46 55 L 46 60 A 1 1 0 0 0 45 61 A 1 1 0 0 0 46 62 L 46 67 C 46 68.64497 47.35503 70 49 70 L 67 70 C 68.64497 70 70 68.64497 70 67 L 70 55 C 70 53.35503 68.64497 52 67 52 L 49 52 z M 49 54 L 67 54 C 67.56503 54 68 54.43497 68 55 L 68 67 C 68 67.56503 67.56503 68 67 68 L 49 68 C 48.43497 68 48 67.56503 48 67 L 48 55 C 48 54.43497 48.43497 54 49 54 z M 22 56 A 1 1 0 0 0 21 57 A 1 1 0 0 0 22 58 A 1 1 0 0 0 23 57 A 1 1 0 0 0 22 56 z M 52 56 A 1 1 0 0 0 51 57 A 1 1 0 0 0 52 58 A 1 1 0 0 0 53 57 A 1 1 0 0 0 52 56 z M 22 60 A 1 1 0 0 0 21 61 A 1 1 0 0 0 22 62 A 1 1 0 0 0 23 61 A 1 1 0 0 0 22 60 z M 26 60 A 1 1 0 0 0 25 61 A 1 1 0 0 0 26 62 A 1 1 0 0 0 27 61 A 1 1 0 0 0 26 60 z M 30 60 A 1 1 0 0 0 29 61 A 1 1 0 0 0 30 62 A 1 1 0 0 0 31 61 A 1 1 0 0 0 30 60 z M 34 60 A 1 1 0 0 0 33 61 A 1 1 0 0 0 34 62 A 1 1 0 0 0 35 61 A 1 1 0 0 0 34 60 z M 38 60 A 1 1 0 0 0 37 61 A 1 1 0 0 0 38 62 A 1 1 0 0 0 39 61 A 1 1 0 0 0 38 60 z M 42 60 A 1 1 0 0 0 41 61 A 1 1 0 0 0 42 62 A 1 1 0 0 0 43 61 A 1 1 0 0 0 42 60 z M 52 60 A 1 1 0 0 0 51 61 A 1 1 0 0 0 52 62 A 1 1 0 0 0 53 61 A 1 1 0 0 0 52 60 z M 52 64 A 1 1 0 0 0 51 65 A 1 1 0 0 0 52 66 A 1 1 0 0 0 53 65 A 1 1 0 0 0 52 64 z"/>
</svg>
